<?xml version="1.0" encoding="us-ascii" standalone="no"?><svg xmlns="http://www.w3.org/2000/svg" xmlns:xlink="http://www.w3.org/1999/xlink" contentStyleType="text/css" height="1170px" preserveAspectRatio="none" style="width:1207px;height:1170px;background:#FFFFE0;" version="1.1" viewBox="0 0 1207 1170" width="1207px" zoomAndPan="magnify"><defs/><g><rect fill="#FFFFE0" height="1170" style="stroke:none;stroke-width:1.0;" width="1207" x="0" y="0"/><!--cluster MW--><g id="cluster_MW"><path d="M19.5,97 L457.5,97 A12.5,12.5 0 0 1 470,109.5 L470,118.2969 L7,118.2969 L7,109.5 A12.5,12.5 0 0 1 19.5,97 " fill="#D3D3D3" style="stroke:#D3D3D3;stroke-width:1.0;"/><rect fill="none" height="976" rx="12.5" ry="12.5" style="stroke:#808080;stroke-width:0.5;" width="463" x="7" y="97"/><line style="stroke:#808080;stroke-width:0.5;" x1="7" x2="470" y1="118.2969" y2="118.2969"/><text fill="#000000" font-family="Impact" font-size="14" lengthAdjust="spacing" textLength="111" x="183" y="113.9951">Microwave state</text></g><!--cluster GM--><g id="cluster_GM"><path d="M713.5,97 L1181.5,97 A12.5,12.5 0 0 1 1194,109.5 L1194,118.2969 L701,118.2969 L701,109.5 A12.5,12.5 0 0 1 713.5,97 " fill="#D3D3D3" style="stroke:#D3D3D3;stroke-width:1.0;"/><rect fill="none" height="976" rx="12.5" ry="12.5" style="stroke:#808080;stroke-width:0.5;" width="493" x="701" y="97"/><line style="stroke:#808080;stroke-width:0.5;" x1="701" x2="1194" y1="118.2969" y2="118.2969"/><text fill="#000000" font-family="Impact" font-size="14" lengthAdjust="spacing" textLength="64" x="915.5" y="113.9951">Grill state</text></g><g id="MW.CDM"><rect fill="#D3D3D3" height="50" rx="12.5" ry="12.5" style="stroke:#808080;stroke-width:0.5;" width="179" x="139.5" y="745"/><line style="stroke:#808080;stroke-width:0.5;" x1="139.5" x2="318.5" y1="771.2969" y2="771.2969"/><text fill="#000000" font-family="Impact" font-size="14" lengthAdjust="spacing" textLength="159" x="149.5" y="762.9951">Check MW door closed</text></g><g id="MW.DTM"><rect fill="#D3D3D3" height="50" rx="12.5" ry="12.5" style="stroke:#808080;stroke-width:0.5;" width="137" x="135.5" y="491"/><line style="stroke:#808080;stroke-width:0.5;" x1="135.5" x2="272.5" y1="517.2969" y2="517.2969"/><text fill="#000000" font-family="Impact" font-size="14" lengthAdjust="spacing" textLength="117" x="145.5" y="508.9951">Display MW timer</text></g><g id="MW.STM"><rect fill="#D3D3D3" height="50" rx="12.5" ry="12.5" style="stroke:#808080;stroke-width:0.5;" width="111" x="156.5" y="618"/><line style="stroke:#808080;stroke-width:0.5;" x1="156.5" x2="267.5" y1="644.2969" y2="644.2969"/><text fill="#000000" font-family="Impact" font-size="14" lengthAdjust="spacing" textLength="91" x="166.5" y="635.9951">Set MW timer</text></g><g id="MW.AMG"><rect fill="#D3D3D3" height="50" rx="12.5" ry="12.5" style="stroke:#808080;stroke-width:0.5;" width="154" x="110" y="872"/><line style="stroke:#808080;stroke-width:0.5;" x1="110" x2="264" y1="898.2969" y2="898.2969"/><text fill="#000000" font-family="Impact" font-size="14" lengthAdjust="spacing" textLength="134" x="120" y="889.9951">Activate magnetron</text></g><g id="MW.DW"><rect fill="#D3D3D3" height="50" rx="12.5" ry="12.5" style="stroke:#808080;stroke-width:0.5;" width="167" x="120.5" y="237"/><line style="stroke:#808080;stroke-width:0.5;" x1="120.5" x2="287.5" y1="263.2969" y2="263.2969"/><text fill="#000000" font-family="Impact" font-size="14" lengthAdjust="spacing" textLength="147" x="130.5" y="254.9951">Display wattage state</text></g><g id="MW.SW"><rect fill="#D3D3D3" height="50" rx="12.5" ry="12.5" style="stroke:#808080;stroke-width:0.5;" width="141" x="133.5" y="364"/><line style="stroke:#808080;stroke-width:0.5;" x1="133.5" x2="274.5" y1="390.2969" y2="390.2969"/><text fill="#000000" font-family="Impact" font-size="14" lengthAdjust="spacing" textLength="121" x="143.5" y="381.9951">Set wattage state</text></g><g id="MW.PS"><rect fill="#D3D3D3" height="50" rx="12.5" ry="12.5" style="stroke:#808080;stroke-width:0.5;" width="111" x="241.5" y="999"/><line style="stroke:#808080;stroke-width:0.5;" x1="241.5" x2="352.5" y1="1025.2969" y2="1025.2969"/><text fill="#000000" font-family="Impact" font-size="14" lengthAdjust="spacing" textLength="91" x="251.5" y="1016.9951">Paused state</text></g><ellipse cx="204" cy="150" fill="#181818" rx="10" ry="10" style="stroke:none;stroke-width:1.0;"/><g id="GM.CDGL"><rect fill="#D3D3D3" height="50" rx="12.5" ry="12.5" style="stroke:#808080;stroke-width:0.5;" width="179" x="833.5" y="745"/><line style="stroke:#808080;stroke-width:0.5;" x1="833.5" x2="1012.5" y1="771.2969" y2="771.2969"/><text fill="#000000" font-family="Impact" font-size="14" lengthAdjust="spacing" textLength="159" x="843.5" y="762.9951">Check Grill door closed</text></g><g id="GM.DTGL"><rect fill="#D3D3D3" height="50" rx="12.5" ry="12.5" style="stroke:#808080;stroke-width:0.5;" width="137" x="852.5" y="491"/><line style="stroke:#808080;stroke-width:0.5;" x1="852.5" x2="989.5" y1="517.2969" y2="517.2969"/><text fill="#000000" font-family="Impact" font-size="14" lengthAdjust="spacing" textLength="117" x="862.5" y="508.9951">Display Grill timer</text></g><g id="GM.STGL"><rect fill="#D3D3D3" height="50" rx="12.5" ry="12.5" style="stroke:#808080;stroke-width:0.5;" width="111" x="866.5" y="618"/><line style="stroke:#808080;stroke-width:0.5;" x1="866.5" x2="977.5" y1="644.2969" y2="644.2969"/><text fill="#000000" font-family="Impact" font-size="14" lengthAdjust="spacing" textLength="91" x="876.5" y="635.9951">Set Grill timer</text></g><g id="GM.AGL"><rect fill="#D3D3D3" height="50" rx="12.5" ry="12.5" style="stroke:#808080;stroke-width:0.5;" width="191" x="744.5" y="872"/><line style="stroke:#808080;stroke-width:0.5;" x1="744.5" x2="935.5" y1="898.2969" y2="898.2969"/><text fill="#000000" font-family="Impact" font-size="14" lengthAdjust="spacing" textLength="171" x="754.5" y="889.9951">Activate heating element</text></g><g id="GM.DTMP"><rect fill="#D3D3D3" height="50" rx="12.5" ry="12.5" style="stroke:#808080;stroke-width:0.5;" width="198" x="733" y="237"/><line style="stroke:#808080;stroke-width:0.5;" x1="733" x2="931" y1="263.2969" y2="263.2969"/><text fill="#000000" font-family="Impact" font-size="14" lengthAdjust="spacing" textLength="178" x="743" y="254.9951">Display temperature state</text></g><g id="GM.STMP"><rect fill="#D3D3D3" height="50" rx="12.5" ry="12.5" style="stroke:#808080;stroke-width:0.5;" width="172" x="835" y="364"/><line style="stroke:#808080;stroke-width:0.5;" x1="835" x2="1007" y1="390.2969" y2="390.2969"/><text fill="#000000" font-family="Impact" font-size="14" lengthAdjust="spacing" textLength="152" x="845" y="381.9951">Set temperature state</text></g><g id="GM.PSGL"><rect fill="#D3D3D3" height="50" rx="12.5" ry="12.5" style="stroke:#808080;stroke-width:0.5;" width="111" x="916.5" y="999"/><line style="stroke:#808080;stroke-width:0.5;" x1="916.5" x2="1027.5" y1="1025.2969" y2="1025.2969"/><text fill="#000000" font-family="Impact" font-size="14" lengthAdjust="spacing" textLength="91" x="926.5" y="1016.9951">Paused state</text></g><ellipse cx="832" cy="150" fill="#181818" rx="10" ry="10" style="stroke:none;stroke-width:1.0;"/><ellipse cx="462" cy="16" fill="#181818" rx="10" ry="10" style="stroke:none;stroke-width:1.0;"/><g id="notification"><rect fill="#D3D3D3" height="50" rx="12.5" ry="12.5" style="stroke:#808080;stroke-width:0.5;" width="95" x="537.5" y="999"/><line style="stroke:#808080;stroke-width:0.5;" x1="537.5" x2="632.5" y1="1025.2969" y2="1025.2969"/><text fill="#000000" font-family="Impact" font-size="14" lengthAdjust="spacing" textLength="75" x="547.5" y="1016.9951">notification</text></g><ellipse cx="585" cy="1154" fill="none" rx="10" ry="10" style="stroke:#181818;stroke-width:1.0;"/><ellipse cx="585.5" cy="1154.5" fill="#181818" rx="6" ry="6" style="stroke:none;stroke-width:1.0;"/><!--link *start*MW to DW--><g id="link_*start*MW_DW"><path d="M204,160 C204,175.46 204,207.68 204,231.6 " fill="none" id="*start*MW-to-DW" style="stroke:#181818;stroke-width:1.0;"/><polygon fill="#181818" points="204,236.87,208,227.87,204,231.87,200,227.87,204,236.87" style="stroke:#181818;stroke-width:1.0;"/></g><!--link DW to DTM--><g id="link_DW_DTM"><path d="M159.31,287.02 C132.03,304.41 99.51,330.67 84,364 C74.62,384.15 74.62,393.85 84,414 C98.66,445.51 128.53,470.7 154.79,488.04 " fill="none" id="DW-to-DTM" style="stroke:#181818;stroke-width:1.0;"/><polygon fill="#181818" points="159.31,490.98,153.935,482.7271,155.1148,488.2596,149.5824,489.4394,159.31,490.98" style="stroke:#181818;stroke-width:1.0;"/><text fill="#000000" font-family="sans-serif" font-size="13" lengthAdjust="spacing" textLength="30" x="85" y="393.5669">start</text></g><!--link DW to SW--><g id="link_DW_SW"><path d="M204,287.1 C204,307.59 204,337.08 204,358.88 " fill="none" id="DW-to-SW" style="stroke:#181818;stroke-width:1.0;"/><polygon fill="#181818" points="204,363.97,208,354.97,204,358.97,200,354.97,204,363.97" style="stroke:#181818;stroke-width:1.0;"/><text fill="#000000" font-family="sans-serif" font-size="13" lengthAdjust="spacing" textLength="133" x="205" y="330.0669">up/down/rotary_knob</text></g><!--link SW to DTM--><g id="link_SW_DTM"><path d="M204,414.1 C204,434.59 204,464.08 204,485.88 " fill="none" id="SW-to-DTM" style="stroke:#181818;stroke-width:1.0;"/><polygon fill="#181818" points="204,490.97,208,481.97,204,485.97,200,481.97,204,490.97" style="stroke:#181818;stroke-width:1.0;"/><text fill="#000000" font-family="sans-serif" font-size="13" lengthAdjust="spacing" textLength="30" x="205" y="457.0669">start</text></g><!--link SW to SW--><g id="link_SW_SW"><path d="M274.5,377.43 C294.3,377.94 309.5,381.79 309.5,389 C309.5,395.53 297.02,399.31 279.94,400.34 " fill="none" id="SW-to-SW" style="stroke:#181818;stroke-width:1.0;"/><polygon fill="#181818" points="274.5,400.57,283.6531,404.206,279.496,400.3696,283.3324,396.2125,274.5,400.57" style="stroke:#181818;stroke-width:1.0;"/><text fill="#000000" font-family="sans-serif" font-size="13" lengthAdjust="spacing" textLength="133" x="315.5" y="393.5669">up/down/rotary_knob</text></g><!--link DTM to STM--><g id="link_DTM_STM"><path d="M205.54,541.1 C206.85,561.59 208.74,591.08 210.14,612.88 " fill="none" id="DTM-to-STM" style="stroke:#181818;stroke-width:1.0;"/><polygon fill="#181818" points="210.46,617.97,213.8859,608.7362,210.1454,612.9799,205.9017,609.2395,210.46,617.97" style="stroke:#181818;stroke-width:1.0;"/><text fill="#000000" font-family="sans-serif" font-size="13" lengthAdjust="spacing" textLength="133" x="210" y="584.0669">up/down/rotary_knob</text></g><!--link STM to STM--><g id="link_STM_STM"><path d="M267.68,631.38 C286.94,631.25 302.5,635.13 302.5,643 C302.5,650.13 289.72,653.98 272.99,654.55 " fill="none" id="STM-to-STM" style="stroke:#181818;stroke-width:1.0;"/><polygon fill="#181818" points="267.68,654.62,276.7362,658.491,272.6795,654.5486,276.6219,650.4918,267.68,654.62" style="stroke:#181818;stroke-width:1.0;"/><text fill="#000000" font-family="sans-serif" font-size="13" lengthAdjust="spacing" textLength="133" x="308.5" y="647.5669">up/down/rotary_knob</text></g><!--link STM to CDM--><g id="link_STM_CDM"><path d="M215.28,668.1 C218.06,688.59 222.07,718.08 225.04,739.88 " fill="none" id="STM-to-CDM" style="stroke:#181818;stroke-width:1.0;"/><polygon fill="#181818" points="225.73,744.97,228.4858,735.5146,225.0589,740.0152,220.5582,736.5883,225.73,744.97" style="stroke:#181818;stroke-width:1.0;"/><text fill="#000000" font-family="sans-serif" font-size="13" lengthAdjust="spacing" textLength="30" x="223" y="711.0669">start</text></g><!--link CDM to AMG--><g id="link_CDM_AMG"><path d="M139.11,783.17 C114.68,791.06 90.89,803.96 76,825 C61.57,845.39 79.65,861.31 105.13,872.85 " fill="none" id="CDM-to-AMG" style="stroke:#181818;stroke-width:1.0;"/><polygon fill="#181818" points="109.97,874.96,103.3195,867.6956,105.3869,872.9612,100.1214,875.0285,109.97,874.96" style="stroke:#181818;stroke-width:1.0;"/><text fill="#000000" font-family="sans-serif" font-size="13" lengthAdjust="spacing" textLength="114" x="77" y="838.0669">Tick[isdoorclosed]</text></g><!--link AMG to CDM--><g id="link_AMG_CDM"><path d="M195.07,871.97 C201.98,851.42 211.94,821.77 219.28,799.92 " fill="none" id="AMG-to-CDM" style="stroke:#181818;stroke-width:1.0;"/><polygon fill="#181818" points="220.9,795.1,214.233,802.3492,219.3017,799.8377,221.8133,804.9064,220.9,795.1" style="stroke:#181818;stroke-width:1.0;"/><text fill="#000000" font-family="sans-serif" font-size="13" lengthAdjust="spacing" textLength="84" x="212" y="838.0669">door_opened</text></g><!--link AMG to PS--><g id="link_AMG_PS"><path d="M208.21,922.1 C226.55,942.94 253.07,973.07 272.34,994.98 " fill="none" id="AMG-to-PS" style="stroke:#181818;stroke-width:1.0;"/><polygon fill="#181818" points="275.86,998.97,272.9059,989.5746,272.5524,995.2204,266.9066,994.8668,275.86,998.97" style="stroke:#181818;stroke-width:1.0;"/><text fill="#000000" font-family="sans-serif" font-size="13" lengthAdjust="spacing" textLength="30" x="250" y="965.0669">start</text></g><!--link PS to CDM--><g id="link_PS_CDM"><path d="M305.24,998.81 C317.02,959.77 334.19,881.56 305,825 C299.54,814.43 290.95,805.48 281.48,798.08 " fill="none" id="PS-to-CDM" style="stroke:#181818;stroke-width:1.0;"/><polygon fill="#181818" points="277.38,795.01,282.18,803.61,281.38,798.01,286.98,797.21,277.38,795.01" style="stroke:#181818;stroke-width:1.0;"/><text fill="#000000" font-family="sans-serif" font-size="13" lengthAdjust="spacing" textLength="30" x="323" y="901.5669">start</text></g><!--link CDM to CDM--><g id="link_CDM_CDM"><path d="M318.53,758.66 C338.73,759.68 353.5,763.46 353.5,770 C353.5,775.98 341.16,779.65 323.61,781.02 " fill="none" id="CDM-to-CDM" style="stroke:#181818;stroke-width:1.0;"/><polygon fill="#181818" points="318.53,781.34,327.7638,784.7659,323.5201,781.0254,327.2605,776.7817,318.53,781.34" style="stroke:#181818;stroke-width:1.0;"/><text fill="#000000" font-family="sans-serif" font-size="13" lengthAdjust="spacing" textLength="84" x="359.5" y="774.5669">door_opened</text></g><!--link *start* to MW--><g id="link_*start*_MW"><path d="M462,26.07 C462,33.41 462,44.5825 462,57.2566 C462,63.5936 462,70.306 462,77.1025 C462,80.5007 462,83.9199 462,87.3237 C462,89.0256 462,90.7237 462,92.4133 C462,93.2582 462,94.1009 462,94.9409 C462,95.361 462,95.7803 462,96.1989 C462,96.4082 462,96.6174 462,96.8263 " fill="none" id="*start*-to-MW" style="stroke:#181818;stroke-width:1.0;"/><polygon fill="#181818" points="462,96.8263,466,87.8263,462,91.8263,458,87.8263,462,96.8263" style="stroke:#181818;stroke-width:1.0;"/><text fill="#000000" font-family="sans-serif" font-size="13" lengthAdjust="spacing" textLength="84" x="463" y="69.0669">Menu_button</text></g><!--link *start*GM to DTMP--><g id="link_*start*GM_DTMP"><path d="M832,160 C832,175.46 832,207.68 832,231.6 " fill="none" id="*start*GM-to-DTMP" style="stroke:#181818;stroke-width:1.0;"/><polygon fill="#181818" points="832,236.87,836,227.87,832,231.87,828,227.87,832,236.87" style="stroke:#181818;stroke-width:1.0;"/></g><!--link DTMP to MW--><g id="link_DTMP_MW"><path d="M732.95,254.61 C647.42,247.42 531.82,233.15 494,207 C488.29,203.05 483.4688,197.7288 479.4406,191.932 C477.4266,189.0337 475.6108,186.0164 473.9813,182.9923 C473.1666,181.4803 472.3985,179.9665 471.6754,178.465 C471.3139,177.7142 470.9636,176.9665 470.6244,176.2237 C470.4549,175.8522 470.288,175.482 470.124,175.1132 C470.083,175.021 470.0421,174.9289 470.0014,174.8368 " fill="none" id="DTMP-to-MW" style="stroke:#181818;stroke-width:1.0;"/><polygon fill="#181818" points="470.0014,174.8368,469.9814,184.6857,472.0228,179.41,477.2985,181.4515,470.0014,174.8368" style="stroke:#181818;stroke-width:1.0;"/><text fill="#000000" font-family="sans-serif" font-size="13" lengthAdjust="spacing" textLength="84" x="495" y="203.0669">Menu_button</text></g><!--link DTMP to DTGL--><g id="link_DTMP_DTGL"><path d="M813.76,287.22 C793.08,317.86 764.83,371.73 786,414 C802.36,446.67 834.86,471.49 863.87,488.35 " fill="none" id="DTMP-to-DTGL" style="stroke:#181818;stroke-width:1.0;"/><polygon fill="#181818" points="868.5,490.99,862.6563,483.0621,864.1544,488.517,858.6995,490.0151,868.5,490.99" style="stroke:#181818;stroke-width:1.0;"/><text fill="#000000" font-family="sans-serif" font-size="13" lengthAdjust="spacing" textLength="30" x="787" y="393.5669">start</text></g><!--link DTMP to STMP--><g id="link_DTMP_STMP"><path d="M849.16,287.1 C863.93,307.85 885.27,337.82 900.86,359.71 " fill="none" id="DTMP-to-STMP" style="stroke:#181818;stroke-width:1.0;"/><polygon fill="#181818" points="903.89,363.97,901.9266,354.3188,900.9892,359.8975,895.4106,358.9601,903.89,363.97" style="stroke:#181818;stroke-width:1.0;"/><text fill="#000000" font-family="sans-serif" font-size="13" lengthAdjust="spacing" textLength="133" x="882" y="330.0669">up/down/rotary_knob</text></g><!--link STMP to STMP--><g id="link_STMP_STMP"><path d="M1007.19,377.62 C1027.24,378.58 1042,382.37 1042,389 C1042,395.06 1029.67,398.75 1012.24,400.07 " fill="none" id="STMP-to-STMP" style="stroke:#181818;stroke-width:1.0;"/><polygon fill="#181818" points="1007.19,400.38,1016.414,403.8322,1012.181,400.0797,1015.9335,395.8467,1007.19,400.38" style="stroke:#181818;stroke-width:1.0;"/><text fill="#000000" font-family="sans-serif" font-size="13" lengthAdjust="spacing" textLength="133" x="1048" y="393.5669">up/down/rotary_knob</text></g><!--link STMP to DTGL--><g id="link_STMP_DTGL"><path d="M921,414.1 C921,434.59 921,464.08 921,485.88 " fill="none" id="STMP-to-DTGL" style="stroke:#181818;stroke-width:1.0;"/><polygon fill="#181818" points="921,490.97,925,481.97,921,485.97,917,481.97,921,490.97" style="stroke:#181818;stroke-width:1.0;"/><text fill="#000000" font-family="sans-serif" font-size="13" lengthAdjust="spacing" textLength="30" x="922" y="457.0669">start</text></g><!--link DTGL to STGL--><g id="link_DTGL_STGL"><path d="M921.19,541.1 C921.36,561.59 921.59,591.08 921.77,612.88 " fill="none" id="DTGL-to-STGL" style="stroke:#181818;stroke-width:1.0;"/><polygon fill="#181818" points="921.81,617.97,925.7327,608.936,921.7671,612.9702,917.733,609.0046,921.81,617.97" style="stroke:#181818;stroke-width:1.0;"/><text fill="#000000" font-family="sans-serif" font-size="13" lengthAdjust="spacing" textLength="133" x="922" y="584.0669">up/down/rotary_knob</text></g><!--link STGL to STGL--><g id="link_STGL_STGL"><path d="M977.68,631.38 C996.94,631.25 1012.5,635.13 1012.5,643 C1012.5,650.13 999.72,653.98 982.99,654.55 " fill="none" id="STGL-to-STGL" style="stroke:#181818;stroke-width:1.0;"/><polygon fill="#181818" points="977.68,654.62,986.7362,658.491,982.6795,654.5486,986.6219,650.4918,977.68,654.62" style="stroke:#181818;stroke-width:1.0;"/><text fill="#000000" font-family="sans-serif" font-size="13" lengthAdjust="spacing" textLength="133" x="1018.5" y="647.5669">up/down/rotary_knob</text></g><!--link STGL to CDGL--><g id="link_STGL_CDGL"><path d="M922.19,668.1 C922.36,688.59 922.59,718.08 922.77,739.88 " fill="none" id="STGL-to-CDGL" style="stroke:#181818;stroke-width:1.0;"/><polygon fill="#181818" points="922.81,744.97,926.7327,735.936,922.7671,739.9702,918.733,736.0046,922.81,744.97" style="stroke:#181818;stroke-width:1.0;"/><text fill="#000000" font-family="sans-serif" font-size="13" lengthAdjust="spacing" textLength="30" x="923" y="711.0669">start</text></g><!--link CDGL to CDGL--><g id="link_CDGL_CDGL"><path d="M1012.53,758.66 C1032.73,759.68 1047.5,763.46 1047.5,770 C1047.5,775.98 1035.16,779.65 1017.61,781.02 " fill="none" id="CDGL-to-CDGL" style="stroke:#181818;stroke-width:1.0;"/><polygon fill="#181818" points="1012.53,781.34,1021.7638,784.7659,1017.5201,781.0254,1021.2605,776.7817,1012.53,781.34" style="stroke:#181818;stroke-width:1.0;"/><text fill="#000000" font-family="sans-serif" font-size="13" lengthAdjust="spacing" textLength="84" x="1053.5" y="774.5669">door_opened</text></g><!--link CDGL to AGL--><g id="link_CDGL_AGL"><path d="M833.13,781.63 C806.91,789.39 781.02,802.6 765,825 C753.37,841.27 766.12,856.84 784.21,869.24 " fill="none" id="CDGL-to-AGL" style="stroke:#181818;stroke-width:1.0;"/><polygon fill="#181818" points="788.39,871.99,783.0744,863.6988,784.2145,869.2396,778.6737,870.3796,788.39,871.99" style="stroke:#181818;stroke-width:1.0;"/><text fill="#000000" font-family="sans-serif" font-size="13" lengthAdjust="spacing" textLength="114" x="766" y="838.0669">Tick[isdoorclosed]</text></g><!--link AGL to CDGL--><g id="link_AGL_CDGL"><path d="M861.94,871.82 C869.65,862.78 878.11,852.22 885,842 C893.98,828.68 902.55,813.02 909.27,799.79 " fill="none" id="AGL-to-CDGL" style="stroke:#181818;stroke-width:1.0;"/><polygon fill="#181818" points="911.67,795.04,904.0435,801.2719,909.4168,799.5035,911.1851,804.8769,911.67,795.04" style="stroke:#181818;stroke-width:1.0;"/><text fill="#000000" font-family="sans-serif" font-size="13" lengthAdjust="spacing" textLength="84" x="896" y="838.0669">door_opened</text></g><!--link AGL to PSGL--><g id="link_AGL_PSGL"><path d="M865.45,922.1 C887.64,943.11 919.81,973.58 942.99,995.53 " fill="none" id="AGL-to-PSGL" style="stroke:#181818;stroke-width:1.0;"/><polygon fill="#181818" points="946.63,998.97,942.8365,989.881,942.9961,995.5356,937.3415,995.6952,946.63,998.97" style="stroke:#181818;stroke-width:1.0;"/><text fill="#000000" font-family="sans-serif" font-size="13" lengthAdjust="spacing" textLength="30" x="914" y="965.0669">start</text></g><!--link PSGL to CDGL--><g id="link_PSGL_CDGL"><path d="M981.62,998.75 C995.4,959.98 1016.26,882.52 989,825 C984.21,814.88 976.48,806.03 967.98,798.58 " fill="none" id="PSGL-to-CDGL" style="stroke:#181818;stroke-width:1.0;"/><polygon fill="#181818" points="963.76,795.03,968.0809,803.8804,967.5894,798.245,973.2248,797.7534,963.76,795.03" style="stroke:#181818;stroke-width:1.0;"/><text fill="#000000" font-family="sans-serif" font-size="13" lengthAdjust="spacing" textLength="30" x="1003" y="901.5669">start</text></g><!--link DW to GM--><g id="link_DW_GM"><path d="M287.69,255.86 C365.63,249.5 484.45,235.75 584,207 C612.785,198.685 643.515,184.99 667.3025,173.225 C679.1963,167.3425 689.3544,161.9425 696.6659,157.9388 C697.5799,157.4383 698.4494,156.9596 699.2722,156.5046 C699.6836,156.2771 700.0833,156.0554 700.4711,155.8399 C700.5681,155.786 700.6643,155.7326 700.7598,155.6794 " fill="none" id="DW-to-GM" style="stroke:#181818;stroke-width:1.0;"/><polygon fill="#181818" points="700.7598,155.6794,690.9503,156.5594,696.3904,158.1103,694.8396,163.5504,700.7598,155.6794" style="stroke:#181818;stroke-width:1.0;"/><text fill="#000000" font-family="sans-serif" font-size="13" lengthAdjust="spacing" textLength="84" x="630" y="203.0669">Menu_button</text></g><!--link AGL to notification--><g id="link_AGL_notification"><path d="M790.83,922.1 C746.76,943.71 682.29,975.31 637.29,997.37 " fill="none" id="AGL-to-notification" style="stroke:#181818;stroke-width:1.0;"/><polygon fill="#181818" points="632.72,999.61,642.5618,999.2383,637.2092,997.4083,639.0391,992.0556,632.72,999.61" style="stroke:#181818;stroke-width:1.0;"/><text fill="#000000" font-family="sans-serif" font-size="13" lengthAdjust="spacing" textLength="118" x="728" y="965.0669">Cooking_complete</text></g><!--link AMG to notification--><g id="link_AMG_notification"><path d="M263.74,922.1 C342.71,946.9 463.62,984.88 532.38,1006.47 " fill="none" id="AMG-to-notification" style="stroke:#181818;stroke-width:1.0;"/><polygon fill="#181818" points="537.24,1008,529.8539,1001.485,532.4701,1006.5005,527.4547,1009.1168,537.24,1008" style="stroke:#181818;stroke-width:1.0;"/><text fill="#000000" font-family="sans-serif" font-size="13" lengthAdjust="spacing" textLength="118" x="411" y="965.0669">Cooking_complete</text></g><!--link notification to *end*--><g id="link_notification_*end*"><path d="M585,1049.08 C585,1075.51 585,1117.08 585,1138.77 " fill="none" id="notification-to-*end*" style="stroke:#181818;stroke-width:1.0;"/><polygon fill="#181818" points="585,1143.83,589,1134.83,585,1138.83,581,1134.83,585,1143.83" style="stroke:#181818;stroke-width:1.0;"/><text fill="#000000" font-family="sans-serif" font-size="13" lengthAdjust="spacing" textLength="208" x="586" y="1110.0669">start/up/down/rotary_knob/menu</text></g><!--SRC=[ZLHDYzim4BtxLuWz5fRSmn98ujOKrgsf0ZuiIr3igICiIqOU9uHb_tibA_wAdMry2CgyDs_6Cq-kSYvBfbb13Yp9CwrgcMwLK9e8dXtn0aAeirTrh0eP0ldm2A78D3fg22clYusemSI_jm9_83L_DtEocMQNAVRo4ZCjkSnMA_9Ry9DLsoYTWdQfWSlweIJ-OWMGdqN94lG-FVEulfv2dcXrPYTmZJuHLf4m_kZmxH6It4H8genW8bG5QKFQ-c7ByNbL2dQnBEG5w0RtTnrE0SSOxR5rWlnaJmNB9A1Mic6im-1M_SmGMJRiqu-75QOuxV28rQRl0HHHptlxzawUdrTMne_TQHSkBKbZ6w7niYuNgJhBXLO6kEnpgGuUdV3fbtn3TB1Dc1Lyb636tfOqnoPaPhKaEvxaRxooMt9BUlTCl4-nm5wL88t7MY2YhLH4xubFaZ-xkONnqXXPrlj3ZQXaxwb0So46mmx2MpyvnjHImUljrXrpQAkUOxT-YzC1tddh20pDBI4We029pc7JMWX52PfXhKSksuNHiE8yYmvOCsupnNg_MQhzcPrY1zWtxTpO1csPkmPvc3AM3bwlUJOud_SunUwmzz0eE7HH1wqjCcVUkwajOeVQ-tUcVFETkzxZ81nFkHMH2lbVdXXxABaaMwNCTplR9wee1I1qD-K_j27SyCsghrqiPgQrC2Qi_m40]--></g></svg>